{
  "accessors": [
    {
      "bufferView": 2,
      "componentType": 5126,
      "count": 524,
      "max": [
        0.63328063488006592,
        0.14296872913837433,
        0.35473188757896423
      ],
      "min": [
        0.14546136558055878,
        -0.12183452397584915,
        -0.4072742760181427
      ],
      "type": "VEC3"
    },
    {
      "bufferView": 2,
      "byteOffset": 6288,
      "componentType": 5126,
      "count": 524,
      "max": [
        1,
        0.98508822917938232,
        1
      ],
      "min": [
        -1,
        -1,
        -1
      ],
      "type": "VEC3"
    },
    {
      "bufferView": 3,
      "componentType": 5126,
      "count": 524,
      "max": [
        0.89147168397903442,
        1,
        1,
        -1
      ],
      "min": [
        -1,
        -0.99161350727081299,
        -0.78019702434539795,
        -1
      ],
      "type": "VEC4"
    },
    {
      "bufferView": 1,
      "componentType": 5126,
      "count": 524,
      "max": [
        0.85593104362487793,
        0.98884516954421997
      ],
      "min": [
        0.019290534779429436,
        0.011154770851135254
      ],
      "type": "VEC2"
    },
    {
      "bufferView": 0,
      "componentType": 5125,
      "count": 2022,
      "max": [
        523
      ],
      "min": [
        0
      ],
      "type": "SCALAR"
    },
    {
      "bufferView": 2,
      "byteOffset": 12576,
      "componentType": 5126,
      "count": 4,
      "max": [
        0.5698540210723877,
        -0.070387691259384155,
        -0.0093317888677120209
      ],
      "min": [
        0.25948762893676758,
        -0.11785810440778732,
        -0.28112822771072388
      ],
      "type": "VEC3"
    },
    {
      "bufferView": 2,
      "byteOffset": 12624,
      "componentType": 5126,
      "count": 4,
      "max": [
        0,
        -0.98508822917938232,
        0.172049880027771
      ],
      "min": [
        0,
        -0.98508822917938232,
        0.172049880027771
      ],
      "type": "VEC3"
    },
    {
      "bufferView": 3,
      "byteOffset": 8384,
      "componentType": 5126,
      "count": 4,
      "max": [
        -1,
        0,
        0,
        -1
      ],
      "min": [
        -1,
        0,
        0,
        -1
      ],
      "type": "VEC4"
    },
    {
      "bufferView": 1,
      "byteOffset": 4192,
      "componentType": 5126,
      "count": 4,
      "max": [
        0.99436455965042114,
        0.93538087606430054
      ],
      "min": [
        0.0056354361586272717,
        0.056416686624288559
      ],
      "type": "VEC2"
    },
    {
      "bufferView": 0,
      "byteOffset": 8088,
      "componentType": 5125,
      "count": 6,
      "max": [
        3
      ],
      "min": [
        0
      ],
      "type": "SCALAR"
    },
    {
      "bufferView": 2,
      "byteOffset": 12672,
      "componentType": 5126,
      "count": 524,
      "max": [
        -0.14546136558055878,
        0.14296872913837433,
        0.35473188757896423
      ],
      "min": [
        -0.63328063488006592,
        -0.12183452397584915,
        -0.4072742760181427
      ],
      "type": "VEC3"
    },
    {
      "bufferView": 2,
      "byteOffset": 18960,
      "componentType": 5126,
      "count": 524,
      "max": [
        1,
        0.98508822917938232,
        1
      ],
      "min": [
        -1,
        -1,
        -1
      ],
      "type": "VEC3"
    },
    {
      "bufferView": 3,
      "byteOffset": 8448,
      "componentType": 5126,
      "count": 524,
      "max": [
        1,
        1,
        1,
        1
      ],
      "min": [
        -0.89147168397903442,
        -0.99161350727081299,
        -0.78019696474075317,
        1
      ],
      "type": "VEC4"
    },
    {
      "bufferView": 1,
      "byteOffset": 4224,
      "componentType": 5126,
      "count": 524,
      "max": [
        0.85593104362487793,
        0.98884516954421997
      ],
      "min": [
        0.019290534779429436,
        0.011154770851135254
      ],
      "type": "VEC2"
    },
    {
      "bufferView": 0,
      "byteOffset": 8112,
      "componentType": 5125,
      "count": 2022,
      "max": [
        523
      ],
      "min": [
        0
      ],
      "type": "SCALAR"
    },
    {
      "bufferView": 2,
      "byteOffset": 25248,
      "componentType": 5126,
      "count": 4,
      "max": [
        -0.25948762893676758,
        -0.070387691259384155,
        -0.0093317888677120209
      ],
      "min": [
        -0.5698540210723877,
        -0.11785810440778732,
        -0.28112822771072388
      ],
      "type": "VEC3"
    },
    {
      "bufferView": 2,
      "byteOffset": 25296,
      "componentType": 5126,
      "count": 4,
      "max": [
        0,
        -0.98508822917938232,
        0.172049880027771
      ],
      "min": [
        0,
        -0.98508822917938232,
        0.172049880027771
      ],
      "type": "VEC3"
    },
    {
      "bufferView": 3,
      "byteOffset": 16832,
      "componentType": 5126,
      "count": 4,
      "max": [
        1,
        0,
        0,
        1
      ],
      "min": [
        1,
        0,
        0,
        1
      ],
      "type": "VEC4"
    },
    {
      "bufferView": 1,
      "byteOffset": 8416,
      "componentType": 5126,
      "count": 4,
      "max": [
        0.99436455965042114,
        0.93538087606430054
      ],
      "min": [
        0.0056354361586272717,
        0.056416686624288559
      ],
      "type": "VEC2"
    },
    {
      "bufferView": 0,
      "byteOffset": 16200,
      "componentType": 5125,
      "count": 6,
      "max": [
        3
      ],
      "min": [
        0
      ],
      "type": "SCALAR"
    }
  ],
  "asset": {
    "extras": {
      "author": "Unknown000.DLL (https://sketchfab.com/Starven38)",
      "license": "CC-BY-NC-ND-4.0 (http://creativecommons.org/licenses/by-nc-nd/4.0/)",
      "source": "https://sketchfab.com/models/4557f75f69574b6792c501fbfb879125",
      "title": "Button panel"
    },
    "generator": "Sketchfab-3.54.8-rc1",
    "version": "2.0"
  },
  "bufferViews": [
    {
      "buffer": 0,
      "byteLength": 16224,
      "byteOffset": 0,
      "name": "floatBufferViews",
      "target": 34963
    },
    {
      "buffer": 0,
      "byteLength": 8448,
      "byteOffset": 16224,
      "byteStride": 8,
      "name": "floatBufferViews",
      "target": 34962
    },
    {
      "buffer": 0,
      "byteLength": 25344,
      "byteOffset": 24672,
      "byteStride": 12,
      "name": "floatBufferViews",
      "target": 34962
    },
    {
      "buffer": 0,
      "byteLength": 16896,
      "byteOffset": 50016,
      "byteStride": 16,
      "name": "floatBufferViews",
      "target": 34962
    }
  ],
  "buffers": [
    {
      "byteLength": 66912,
      "uri": "scene.bin"
    }
  ],
  "images": [
    {
      "uri": "textures/Screen_baseColor.png"
    },
    {
      "uri": "textures/Screen_emissive.png"
    },
    {
      "uri": "textures/Screen.001_baseColor.png"
    },
    {
      "uri": "textures/Screen.001_emissive.png"
    },
    {
      "uri": "textures/Button_baseColor.png"
    },
    {
      "uri": "textures/Button_metallicRoughness.png"
    },
    {
      "uri": "textures/Button_normal.png"
    }
  ],
  "materials": [
    {
      "doubleSided": true,
      "emissiveFactor": [
        0,
        0,
        0
      ],
      "name": "Button",
      "normalTexture": {
        "index": 6,
        "scale": 1,
        "texCoord": 0
      },
      "occlusionTexture": {
        "index": 5,
        "strength": 1,
        "texCoord": 0
      },
      "pbrMetallicRoughness": {
        "baseColorFactor": [
          1,
          1,
          1,
          1
        ],
        "baseColorTexture": {
          "index": 4,
          "texCoord": 0
        },
        "metallicFactor": 1,
        "metallicRoughnessTexture": {
          "index": 5,
          "texCoord": 0
        },
        "roughnessFactor": 1
      }
    },
    {
      "doubleSided": true,
      "emissiveFactor": [
        1,
        1,
        1
      ],
      "emissiveTexture": {
        "index": 3,
        "texCoord": 0
      },
      "name": "Screen.001",
      "pbrMetallicRoughness": {
        "baseColorFactor": [
          1,
          1,
          1,
          1
        ],
        "baseColorTexture": {
          "index": 2,
          "texCoord": 0
        },
        "metallicFactor": 1,
        "roughnessFactor": 0
      }
    },
    {
      "doubleSided": true,
      "emissiveFactor": [
        1,
        1,
        1
      ],
      "emissiveTexture": {
        "index": 1,
        "texCoord": 0
      },
      "name": "Screen",
      "pbrMetallicRoughness": {
        "baseColorFactor": [
          1,
          1,
          1,
          1
        ],
        "baseColorTexture": {
          "index": 0,
          "texCoord": 0
        },
        "metallicFactor": 1,
        "roughnessFactor": 0.82394172570000002
      }
    }
  ],
  "meshes": [
    {
      "name": "ButtonD1.001_Button_0",
      "primitives": [
        {
          "attributes": {
            "NORMAL": 1,
            "POSITION": 0,
            "TANGENT": 2,
            "TEXCOORD_0": 3
          },
          "indices": 4,
          "material": 0,
          "mode": 4
        }
      ]
    },
    {
      "name": "ButtonD1.001_Screen.001_0",
      "primitives": [
        {
          "attributes": {
            "NORMAL": 6,
            "POSITION": 5,
            "TANGENT": 7,
            "TEXCOORD_0": 8
          },
          "indices": 9,
          "material": 1,
          "mode": 4
        }
      ]
    },
    {
      "name": "ButtonD1_Button_0",
      "primitives": [
        {
          "attributes": {
            "NORMAL": 11,
            "POSITION": 10,
            "TANGENT": 12,
            "TEXCOORD_0": 13
          },
          "indices": 14,
          "material": 0,
          "mode": 4
        }
      ]
    },
    {
      "name": "ButtonD1_Screen_0",
      "primitives": [
        {
          "attributes": {
            "NORMAL": 16,
            "POSITION": 15,
            "TANGENT": 17,
            "TEXCOORD_0": 18
          },
          "indices": 19,
          "material": 2,
          "mode": 4
        }
      ]
    }
  ],
  "nodes": [
    {
      "children": [
        1
      ],
      "name": "RootNode (gltf orientation matrix)",
      "rotation": [
        -0.70710678118654746,
        -0,
        -0,
        0.70710678118654757
      ]
    },
    {
      "children": [
        2
      ],
      "name": "RootNode (model correction matrix)"
    },
    {
      "children": [
        3
      ],
      "matrix": [
        1,
        0,
        0,
        0,
        0,
        0,
        1,
        0,
        0,
        -1,
        0,
        0,
        0,
        0,
        0,
        1
      ],
      "name": "bf6cbbed71dc470985427cbe6371c132.fbx"
    },
    {
      "children": [
        4,
        7
      ],
      "name": "RootNode"
    },
    {
      "children": [
        5,
        6
      ],
      "matrix": [
        100,
        0,
        0,
        0,
        0,
        -1.6292067939183141e-05,
        -99.999999999998678,
        0,
        0,
        99.999999999998678,
        -1.6292067939183141e-05,
        0,
        0,
        0,
        0,
        1
      ],
      "name": "ButtonD1.001"
    },
    {
      "mesh": 0,
      "name": "ButtonD1.001_Button_0"
    },
    {
      "mesh": 1,
      "name": "ButtonD1.001_Screen.001_0"
    },
    {
      "children": [
        8,
        9
      ],
      "matrix": [
        100,
        0,
        0,
        0,
        0,
        -1.6292067939183141e-05,
        -99.999999999998678,
        0,
        0,
        99.999999999998678,
        -1.6292067939183141e-05,
        0,
        0,
        0,
        0,
        1
      ],
      "name": "ButtonD1"
    },
    {
      "mesh": 2,
      "name": "ButtonD1_Button_0"
    },
    {
      "mesh": 3,
      "name": "ButtonD1_Screen_0"
    }
  ],
  "samplers": [
    {
      "magFilter": 9729,
      "minFilter": 9987,
      "wrapS": 10497,
      "wrapT": 10497
    }
  ],
  "scene": 0,
  "scenes": [
    {
      "name": "OSG_Scene",
      "nodes": [
        0
      ]
    }
  ],
  "textures": [
    {
      "sampler": 0,
      "source": 0
    },
    {
      "sampler": 0,
      "source": 1
    },
    {
      "sampler": 0,
      "source": 2
    },
    {
      "sampler": 0,
      "source": 3
    },
    {
      "sampler": 0,
      "source": 4
    },
    {
      "sampler": 0,
      "source": 5
    },
    {
      "sampler": 0,
      "source": 6
    }
  ]
}

